#N canvas 914 96 1327 919 10;
#X obj 58 764 pix_texture;
#X obj 70 410 bng 25 250 50 0 empty empty empty 0 -6 0 8 -262144 -1
-1;
#X obj 84 604 unpack 0 0 0;
#X floatatom 74 627 5 0 0 3 length - -, f 5;
#X floatatom 123 627 5 0 0 3 width - -, f 5;
#X obj 127 585 bng 15 250 50 0 empty empty end_reached 20 7 0 10 -262144
-1 -1;
#X floatatom 111 549 5 0 10000 1 frame# - -, f 5;
#X obj 70 439 openpanel;
#X msg 70 459 open \$1;
#X obj 58 568 pix_film;
#X msg 76 502 auto \$1;
#X obj 76 484 tgl 15 0 empty empty empty 0 -6 0 8 -262144 -1 -1 0 1
;
#X msg 87 526 colorspace Grey;
#X obj 900 33 gemwin 25;
#X obj 58 786 rectangle 5.334 4;
#X obj 58 724 alpha;
#X obj 36 710 tgl 15 0 empty empty empty 17 7 0 10 -262144 -1 -1 0
1;
#X obj 58 692 colorRGB 1 1 1 1;
#X floatatom 167 672 5 0 0 0 - - -, f 5;
#X msg 915 3 destroy \, 0;
#X floatatom 170 628 5 0 0 3 height - -, f 5;
#X obj 334 -31 playlist mp4 500 300 {Helvetica 12 Bold} #457782 yellow
black red;
#X symbolatom 334 275 0 0 0 0 - - -;
#X symbolatom 580 318 50 0 0 0 - - -, f 50;
#X symbolatom 827 344 0 0 0 0 - - -;
#X msg 219 -23 seek \$1;
#X floatatom 219 -43 5 0 0 0 - - -, f 5;
#X obj 233 569 vsl 15 100 0 1 0 0 empty empty empty 0 -9 0 10 -262144
-1 -1 0 1;
#X obj 569 743 pix_record;
#X obj 588 712 cnv 15 145 25 empty empty empty 20 12 0 14 -225271 -66577
0;
#X msg 598 716 bang;
#X msg 670 716 auto \$1;
#X obj 651 717 tgl 15 0 empty empty empty 0 -6 0 8 -262144 -1 -1 1
1;
#X obj 588 568 cnv 15 145 65 empty empty empty 20 12 0 14 -225271 -66577
0;
#X msg 594 593 codeclist;
#X msg 590 572 dialog;
#X obj 590 613 t a;
#X obj 578 640 cnv 15 155 65 empty empty empty 20 12 0 14 -225271 -66577
0;
#X obj 582 642 bng 15 250 50 0 empty empty empty 0 -6 0 8 -258699 -1
-1;
#N canvas 0 50 450 300 savepanel 0;
#X obj 114 62 inlet;
#X obj 114 254 outlet;
#X obj 114 199 t b a;
#X obj 114 125 savepanel;
#X msg 114 162 set file \$1;
#X connect 0 0 3 0;
#X connect 2 0 1 0;
#X connect 2 1 1 0;
#X connect 3 0 4 0;
#X connect 4 0 2 0;
#X restore 602 641 pd savepanel;
#X msg 638 684 record \$1;
#X obj 618 686 tgl 15 0 empty empty empty 0 -6 0 8 -262144 -1 -1 0
1;
#X obj 564 701 t a;
#X text 644 421 (do something);
#X floatatom 657 746 5 0 0 0 - - -, f 5;
#X msg 650 613 codec mjpa;
#X msg 670 594 codec 3;
#X obj 836 608 square 3;
#X obj 603 490 spigot;
#X obj 605 444 tgl 15 0 empty empty empty 0 -6 0 8 -262144 -1 -1 0
1;
#X msg 691 516 256 256;
#X obj 572 470 t a b;
#X text 745 516 dimension;
#X text 744 494 offset;
#X text 627 454 drawn but before the square;
#X text 625 441 SNAP! after the sphere is;
#X obj 836 554 pix_invert;
#X obj 836 576 pix_texture;
#X obj 603 510 t b b;
#X msg 605 407 0;
#X msg 691 492 100 100;
#X obj 572 539 pix_snap 0 0 800 600;
#X floatatom 48 79 4 0 0 0 - - -, f 4;
#X obj 48 20 bng 15 250 50 0 empty empty empty 0 -6 0 8 -262144 -1
-1;
#X floatatom 143 21 4 0 0 0 - - -, f 4;
#X obj 143 78 bng 15 250 50 0 empty empty empty 0 -6 0 8 -262144 -1
-1;
#X obj 389 359 f, f 4;
#X obj 334 327 t b b b b a;
#X msg 334 -66 location /home/gedeon/Vidéos/BEAUBOURG;
#X obj 48 48 rtc/xrandom 35;
#X obj 371 409 random;
#X floatatom 371 438 5 0 0 0 - - -, f 5;
#X obj 371 470 -;
#X obj 371 498 * -1;
#X floatatom 371 524 5 0 0 0 - - -, f 5;
#X text 253 437 Frame de depart;
#X text 248 524 Nbre Frames poss;
#X obj 352 550 random;
#X floatatom 352 576 5 0 0 0 - - -, f 5;
#X obj 352 606 t b f f;
#X text 54 -45 BEAUBOURG 39;
#X text 259 667 Nbre 2 mn max;
#X text 231 577 Nbre Frames lues;
#X obj 398 631 moses 3000;
#X obj 465 653 t b;
#X obj 407 670 random 3000;
#X floatatom 367 727 5 0 0 0 - - -, f 5;
#X text 239 726 Nbre Frames lues;
#X obj 151 253 f;
#X obj 179 253 + 1;
#X obj 151 216 metro 40;
#X obj 151 197 tgl 15 0 empty empty empty 0 -6 0 8 -262144 -1 -1 1
1;
#X msg 151 172 0;
#X msg 185 172 1;
#X floatatom 151 279 5 0 0 0 - - -, f 5;
#X obj 151 300 >= 100;
#X obj 367 757 +;
#X floatatom 367 781 5 0 0 0 - - -, f 5;
#X text 276 782 Frames Max;
#X obj 151 328 sel 1;
#X obj 151 355 t b b b;
#X msg 900 -22 dimen 800 600 \, offset 0 0 \, border 1 \, cursor 0
\, create \, 1;
#X obj 270 -66 loadbang;
#X obj 262 275 del 30;
#X obj 367 693 + 10;
#X obj 407 691 + 10;
#X msg 581 661 file /home/gedeon/Vidéos/montage1.mov;
#X obj 746 715 loadbang;
#X msg 746 736 1;
#X obj 754 644 loadbang;
#X obj 572 347 gemhead 24;
#X obj 836 532 translateXYZ 0 0 0.1;
#X obj 58 380 gemhead 23;
#X connect 0 0 14 0;
#X connect 1 0 7 0;
#X connect 2 0 3 0;
#X connect 2 1 4 0;
#X connect 2 2 20 0;
#X connect 3 0 66 1;
#X connect 6 0 9 1;
#X connect 7 0 8 0;
#X connect 8 0 9 0;
#X connect 9 0 17 0;
#X connect 9 1 2 0;
#X connect 9 2 5 0;
#X connect 10 0 9 0;
#X connect 11 0 10 0;
#X connect 12 0 9 0;
#X connect 15 0 0 0;
#X connect 16 0 15 0;
#X connect 17 0 15 0;
#X connect 18 0 17 4;
#X connect 19 0 13 0;
#X connect 21 0 22 0;
#X connect 21 1 23 0;
#X connect 21 2 24 0;
#X connect 22 0 67 0;
#X connect 25 0 21 0;
#X connect 26 0 25 0;
#X connect 27 0 18 0;
#X connect 28 1 44 0;
#X connect 30 0 28 0;
#X connect 31 0 28 0;
#X connect 32 0 31 0;
#X connect 34 0 36 0;
#X connect 35 0 36 0;
#X connect 36 0 28 0;
#X connect 38 0 39 0;
#X connect 39 0 106 0;
#X connect 40 0 42 0;
#X connect 41 0 40 0;
#X connect 42 0 28 0;
#X connect 45 0 36 0;
#X connect 46 0 36 0;
#X connect 48 0 58 0;
#X connect 49 0 48 1;
#X connect 50 0 61 2;
#X connect 51 0 61 0;
#X connect 51 1 48 0;
#X connect 56 0 57 0;
#X connect 57 0 47 0;
#X connect 58 0 61 0;
#X connect 59 0 49 0;
#X connect 60 0 61 1;
#X connect 61 0 111 0;
#X connect 61 0 28 0;
#X connect 62 0 25 0;
#X connect 63 0 69 0;
#X connect 64 0 69 1;
#X connect 66 0 70 1;
#X connect 66 0 72 1;
#X connect 67 0 103 0;
#X connect 67 1 77 0;
#X connect 67 2 70 0;
#X connect 67 3 66 0;
#X connect 67 4 8 0;
#X connect 68 0 21 0;
#X connect 69 0 62 0;
#X connect 69 1 65 0;
#X connect 70 0 71 0;
#X connect 71 0 72 0;
#X connect 71 0 88 1;
#X connect 71 0 96 1;
#X connect 72 0 73 0;
#X connect 73 0 74 0;
#X connect 74 0 77 1;
#X connect 77 0 78 0;
#X connect 78 0 79 0;
#X connect 79 2 83 0;
#X connect 83 0 104 0;
#X connect 83 1 84 0;
#X connect 84 0 85 0;
#X connect 85 0 105 0;
#X connect 86 0 96 0;
#X connect 88 0 89 0;
#X connect 88 0 94 0;
#X connect 89 0 88 1;
#X connect 90 0 88 0;
#X connect 91 0 90 0;
#X connect 92 0 91 0;
#X connect 93 0 91 0;
#X connect 94 0 95 0;
#X connect 94 0 6 0;
#X connect 95 0 99 0;
#X connect 96 0 97 0;
#X connect 97 0 95 1;
#X connect 99 0 100 0;
#X connect 100 1 63 0;
#X connect 100 2 92 0;
#X connect 101 0 13 0;
#X connect 102 0 68 0;
#X connect 103 0 93 0;
#X connect 104 0 86 0;
#X connect 105 0 86 0;
#X connect 106 0 42 0;
#X connect 107 0 108 0;
#X connect 108 0 32 0;
#X connect 109 0 106 0;
#X connect 111 0 56 0;
#X connect 112 0 9 0;
